<svg xmlns="http://www.w3.org/2000/svg" xmlns:xlink="http://www.w3.org/1999/xlink" viewBox="0 0 2575.49 2575.49"><defs><style>.cls-1{fill:#4daa57;}.cls-2,.cls-60,.cls-69{fill:#fff;}.cls-3{fill:#b9e8c0;}.cls-4{fill:#bfeac5;}.cls-5{fill:#c6eccc;}.cls-6{fill:#cceed1;}.cls-7{fill:#d2f0d6;}.cls-8{fill:#d9f2dd;}.cls-9{fill:#dff5e2;}.cls-10{fill:#e6f7e9;}.cls-11{fill:#ecf9ee;}.cls-12{fill:#f2fbf3;}.cls-13{fill:#f9fdfa;}.cls-14,.cls-15,.cls-40,.cls-41,.cls-42,.cls-43,.cls-44,.cls-45,.cls-46,.cls-47,.cls-48,.cls-49,.cls-50,.cls-51,.cls-53,.cls-54,.cls-55,.cls-56,.cls-57,.cls-58,.cls-59{fill:#17451d;}.cls-15{opacity:0.1;}.cls-16{fill:#25542c;opacity:0.18;}.cls-17{fill:#336239;}.cls-17,.cls-41{opacity:0.26;}.cls-18{fill:#427149;opacity:0.35;}.cls-19{fill:#508058;opacity:0.43;}.cls-20{fill:#5e8e65;opacity:0.51;}.cls-21{fill:#6c9d73;opacity:0.59;}.cls-22{fill:#7aab80;opacity:0.67;}.cls-23{fill:#88ba8f;opacity:0.75;}.cls-24{fill:#97c99f;}.cls-24,.cls-50{opacity:0.84;}.cls-25{fill:#a5d7ac;opacity:0.92;}.cls-26{fill:#b3e6bb;}.cls-27{fill:#bae8c0;}.cls-28{fill:#c1ebc8;}.cls-29{fill:#c8edcd;}.cls-30{fill:#cfefd4;}.cls-31{fill:#d6f1da;}.cls-32{fill:#dcf4e0;}.cls-33{fill:#e3f6e6;}.cls-34{fill:#eaf8ec;}.cls-35{fill:#f1faf2;}.cls-36{fill:#f8fdf9;}.cls-37,.cls-38,.cls-67,.cls-68{opacity:0.3;}.cls-37{fill:url(#linear-gradient);}.cls-39{fill:url(#linear-gradient-2);}.cls-40,.cls-69{opacity:0.2;}.cls-42{opacity:0.33;}.cls-43{opacity:0.39;}.cls-44{opacity:0.45;}.cls-45{opacity:0.52;}.cls-46{opacity:0.58;}.cls-47{opacity:0.65;}.cls-48{opacity:0.71;}.cls-49{opacity:0.77;}.cls-51{opacity:0.9;}.cls-52{fill:#36ff2e;}.cls-53{opacity:0.4;}.cls-54{opacity:0.47;}.cls-55{opacity:0.54;}.cls-56{opacity:0.61;}.cls-57{opacity:0.69;}.cls-58{opacity:0.76;}.cls-59{opacity:0.83;}.cls-60{opacity:0;}.cls-61{fill:#e4ffe3;opacity:0.14;}.cls-62{fill:#c9ffc7;opacity:0.29;}.cls-63{fill:#aeffab;opacity:0.43;}.cls-64{fill:#94ff90;opacity:0.57;}.cls-65{fill:#79ff74;opacity:0.71;}.cls-66{fill:#5eff58;opacity:0.86;}.cls-67{fill:url(#linear-gradient-3);}.cls-68{fill:url(#linear-gradient-4);}</style><linearGradient id="linear-gradient" x1="1287.75" y1="1831.37" x2="1287.75" y2="813.52" gradientUnits="userSpaceOnUse"><stop offset="0.5" stop-color="#17451d"/><stop offset="0.54" stop-color="#37663e"/><stop offset="0.61" stop-color="#6c9d73"/><stop offset="0.68" stop-color="#93c59a"/><stop offset="0.73" stop-color="#aaddb2"/><stop offset="0.76" stop-color="#b3e6bb"/><stop offset="1" stop-color="#d4f1d9"/></linearGradient><linearGradient id="linear-gradient-2" x1="1287.75" y1="1831.37" x2="1287.75" y2="813.52" gradientUnits="userSpaceOnUse"><stop offset="0.09" stop-color="#17451d"/><stop offset="0.2" stop-color="#37663e"/><stop offset="0.39" stop-color="#6c9d73"/><stop offset="0.55" stop-color="#93c59a"/><stop offset="0.68" stop-color="#aaddb2"/><stop offset="0.76" stop-color="#b3e6bb"/><stop offset="1" stop-color="#d4f1d9"/></linearGradient><linearGradient id="linear-gradient-3" x1="1287.75" y1="668.77" x2="1287.75" y2="551.83" xlink:href="#linear-gradient"/><linearGradient id="linear-gradient-4" x1="1287.75" y1="641.25" x2="1287.75" y2="579.34" gradientUnits="userSpaceOnUse"><stop offset="0.04" stop-color="#17451d"/><stop offset="0.15" stop-color="#37663e"/><stop offset="0.36" stop-color="#6c9d73"/><stop offset="0.53" stop-color="#93c59a"/><stop offset="0.67" stop-color="#aaddb2"/><stop offset="0.76" stop-color="#b3e6bb"/><stop offset="1" stop-color="#d4f1d9"/></linearGradient></defs><g id="Layer_2" data-name="Layer 2"><g id="AI_ROBOT" data-name="AI ROBOT"><circle class="cls-1" cx="1287.75" cy="1287.75" r="1287.75"/><path class="cls-2" d="M2251.3,1124.66s-29.79,190.54,0,390.95c0,0,109.57-18.77,109.57-195.48S2251.3,1124.66,2251.3,1124.66Z"/><path class="cls-3" d="M2256.23,1499.91c9.14-2.79,28.35-10.43,47.25-29,33.52-33,50.51-83.71,50.51-150.74,0-109.62-47-153.82-77.59-171-11.11-6.23-22.41,8.53-24.62,32C2245.44,1248.43,2238.66,1372,2256.23,1499.91Z"/><path class="cls-4" d="M2275.31,1148.55c-10.55-5.85-21.26,8.15-23.4,30.41q-.28,2.91-.55,6c-5.76,65.23-11.21,179,4.76,297,8.56.15,27.46-5.34,45.83-23.62,32.24-32.07,48.53-81.07,48.41-145.63C2350.16,1207.16,2304.86,1164.89,2275.31,1148.55Z"/><path class="cls-5" d="M2274.21,1147.94c-10-5.48-20.11,7.76-22.17,28.76q-.27,2.77-.53,5.7c-5.37,62-10.39,169.6,4.5,281.47,8,3.1,26.58-.25,44.4-18.2,31-31.15,46.56-78.43,46.31-140.52C2346.33,1203.81,2302.75,1163.47,2274.21,1147.94Z"/><path class="cls-6" d="M2273.11,1147.33c-9.44-5.08-19,7.36-20.94,27.12-.17,1.76-.34,3.57-.5,5.42-5,58.8-9.58,160.21,4.24,266,7.39,6.05,25.69,4.84,43-12.78,29.7-30.23,44.57-75.78,44.2-135.41C2342.49,1200.47,2300.59,1162.12,2273.11,1147.33Z"/><path class="cls-7" d="M2272,1146.72c-8.88-4.7-17.8,7-19.7,25.48-.18,1.67-.34,3.39-.48,5.15-4.6,55.58-8.78,150.81,4,250.48,6.81,9,24.81,9.94,41.54-7.36,28.43-29.3,42.6-73.14,42.11-130.3C2338.66,1197.12,2298.46,1160.71,2272,1146.72Z"/><path class="cls-8" d="M2270.92,1146.11c-8.33-4.33-16.65,6.58-18.48,23.84-.17,1.58-.32,3.2-.46,4.87-4.21,52.36-8,141.42,3.71,235,6.22,11.94,23.93,15,40.12-1.94,27.16-28.38,40.62-70.5,40-125.19C2334.83,1193.77,2296.33,1159.31,2270.92,1146.11Z"/><path class="cls-9" d="M2269.82,1145.49c-7.77-3.94-15.5,6.19-17.25,22.21-.16,1.49-.31,3-.43,4.6-3.82,49.14-7.16,132,3.44,219.49,5.64,14.89,23.05,20.12,38.69,3.48,25.89-27.46,38.64-67.86,37.91-120.08C2331,1190.42,2294.21,1157.89,2269.82,1145.49Z"/><path class="cls-10" d="M2268.72,1144.88c-7.21-3.57-14.34,5.8-16,20.56-.16,1.4-.3,2.85-.41,4.33-3.44,45.93-6.35,122.63,3.17,204,5.06,17.84,22.16,25.21,37.27,8.9,24.61-26.54,36.66-65.22,35.8-115C2327.16,1187.08,2292.09,1156.47,2268.72,1144.88Z"/><path class="cls-11" d="M2267.62,1144.27c-6.64-3.2-13.19,5.4-14.78,18.92-.16,1.31-.29,2.67-.38,4.06-3.05,42.71-5.55,113.23,2.9,188.5,4.48,20.79,21.28,30.31,35.84,14.32,23.35-25.61,34.69-62.58,33.7-109.86C2323.33,1183.73,2290,1155.05,2267.62,1144.27Z"/><path class="cls-12" d="M2266.53,1143.66c-6.08-2.84-12,5-13.56,17.28q-.22,1.83-.36,3.78c-2.66,39.49-4.73,103.84,2.65,173,3.88,23.73,20.39,35.4,34.41,19.74,22.07-24.69,32.7-59.93,31.6-104.75C2319.5,1180.38,2287.87,1153.61,2266.53,1143.66Z"/><path class="cls-13" d="M2265.43,1143.05c-5.52-2.47-10.88,4.62-12.32,15.64-.15,1.13-.27,2.3-.34,3.5-2.28,36.28-3.92,94.45,2.38,157.52,3.3,26.68,19.51,40.49,33,25.16,20.8-23.77,30.72-57.29,29.49-99.64C2315.66,1177,2285.76,1152.15,2265.43,1143.05Z"/><path class="cls-2" d="M2255,1301.69c2.72,29.63,18.63,45.58,31.28,30.91l.28-.33c19.53-22.85,28.75-54.65,27.4-94.53-2.17-64-30.33-87.06-49.67-95.3-5.48-2.34-10.74,5.67-11.4,17.23C2251,1192.73,2249.81,1244.72,2255,1301.69Z"/><path class="cls-14" d="M2240.73,1579a38.81,38.81,0,0,1-38.86-38.78l-.41-421.1a38.82,38.82,0,1,1,77.64-.07l.41,421.09A38.82,38.82,0,0,1,2240.73,1579Z"/><path class="cls-15" d="M2252.09,1100.07a22.38,22.38,0,0,0-34.2,19l.41,421.09a22.39,22.39,0,1,0,44.77,0l-.4-421.09A22.3,22.3,0,0,0,2252.09,1100.07Z"/><path class="cls-16" d="M2253.2,1112.3a20.71,20.71,0,0,0-31.65,17.62l.53,397.89a20.73,20.73,0,1,0,41.45,0l-.53-397.89A20.63,20.63,0,0,0,2253.2,1112.3Z"/><path class="cls-17" d="M2254.32,1124.53a19.06,19.06,0,0,0-29.12,16.2l.65,374.69a19.07,19.07,0,1,0,38.13,0l-.65-374.7A19,19,0,0,0,2254.32,1124.53Z"/><path class="cls-18" d="M2255.43,1136.76a17.38,17.38,0,0,0-26.57,14.77l.77,351.5a17.4,17.4,0,1,0,34.8,0l-.77-351.5A17.33,17.33,0,0,0,2255.43,1136.76Z"/><path class="cls-19" d="M2256.54,1149a15.71,15.71,0,0,0-24,13.35l.9,328.3a15.74,15.74,0,1,0,31.47,0l-.89-328.3A15.66,15.66,0,0,0,2256.54,1149Z"/><path class="cls-20" d="M2257.65,1161.22a14,14,0,0,0-21.48,11.93l1,305.1a14.08,14.08,0,1,0,28.16,0l-1-305.1A14,14,0,0,0,2257.65,1161.22Z"/><path class="cls-21" d="M2258.76,1173.45a12.44,12.44,0,0,0-15.33,1.75,12.23,12.23,0,0,0-3.61,8.76l1.14,281.9a12.45,12.45,0,0,0,21.22,8.78,12.23,12.23,0,0,0,3.61-8.76l-1.14-281.9A12.33,12.33,0,0,0,2258.76,1173.45Z"/><path class="cls-22" d="M2259.87,1185.68a10.7,10.7,0,0,0-16.39,9.09l1.26,258.7a10.8,10.8,0,0,0,10.78,10.74,10.67,10.67,0,0,0,10.72-10.71L2265,1194.8A10.69,10.69,0,0,0,2259.87,1185.68Z"/><path class="cls-23" d="M2261,1197.91a9,9,0,0,0-4.8-1.37,9,9,0,0,0-9.06,9l1.38,235.51a9.14,9.14,0,0,0,9.13,9.08,9,9,0,0,0,9.05-9l-1.38-235.51A9.06,9.06,0,0,0,2261,1197.91Z"/><path class="cls-24" d="M2262.1,1210.14a7.38,7.38,0,0,0-3.92-1.12,7.32,7.32,0,0,0-7.39,7.36l1.5,212.31a7.49,7.49,0,0,0,7.46,7.42,7.34,7.34,0,0,0,7.4-7.36l-1.5-212.31A7.41,7.41,0,0,0,2262.1,1210.14Z"/><path class="cls-25" d="M2263.21,1222.37a5.8,5.8,0,0,0-7.11.78,5.56,5.56,0,0,0-1.65,4l1.62,189.11a5.74,5.74,0,0,0,2.76,4.89,5.9,5.9,0,0,0,3,.87,5.61,5.61,0,0,0,4.07-1.66,5.53,5.53,0,0,0,1.66-4L2266,1227.26A5.77,5.77,0,0,0,2263.21,1222.37Z"/><path class="cls-26" d="M2264.32,1234.6a4,4,0,0,0-2.15-.62,4,4,0,0,0-2.9,1.16,3.92,3.92,0,0,0-1.17,2.86l1.74,165.91a4.18,4.18,0,0,0,4.14,4.1,4,4,0,0,0,2.9-1.17,3.88,3.88,0,0,0,1.17-2.85l-1.74-165.91A4.09,4.09,0,0,0,2264.32,1234.6Z"/><path class="cls-2" d="M324.19,1124.66s29.79,190.54,0,390.95c0,0-109.57-18.77-109.57-195.48S324.19,1124.66,324.19,1124.66Z"/><path class="cls-3" d="M319.26,1499.91c-9.14-2.79-28.34-10.43-47.25-29-33.52-33-50.51-83.71-50.51-150.74,0-109.62,47-153.82,77.59-171,11.11-6.23,22.41,8.53,24.63,32C330.05,1248.43,336.83,1372,319.26,1499.91Z"/><path class="cls-4" d="M300.19,1148.55c10.54-5.85,21.26,8.15,23.39,30.41q.29,2.91.55,6c5.76,65.23,11.21,179-4.76,297-8.56.15-27.46-5.34-45.8-23.59l-.41-.41c-32-32.08-48.15-80.94-48-145.25C225.33,1207.16,270.63,1164.89,300.19,1148.55Z"/><path class="cls-5" d="M301.28,1147.94c10-5.48,20.11,7.76,22.17,28.76q.27,2.77.53,5.7c5.37,62,10.39,169.6-4.5,281.47-8,3.1-26.58-.25-44.35-18.14l-.4-.4c-30.74-31.16-46.2-78.32-46-140.18C229.16,1203.81,272.75,1163.47,301.28,1147.94Z"/><path class="cls-6" d="M302.38,1147.33c9.44-5.08,18.95,7.36,20.94,27.12.17,1.76.34,3.57.5,5.42,5,58.8,9.58,160.21-4.24,266-7.39,6.05-25.69,4.84-42.89-12.69l-.38-.39c-29.5-30.24-44.27-75.69-43.9-135.11C233,1200.47,274.9,1162.12,302.38,1147.33Z"/><path class="cls-7" d="M303.48,1146.72c8.88-4.7,17.8,7,19.7,25.48.18,1.67.34,3.39.48,5.15,4.6,55.58,8.78,150.81-4,250.48-6.8,9-24.81,9.94-41.44-7.24l-.37-.39c-28.25-29.31-42.33-73-41.84-130C236.83,1197.12,277,1160.71,303.48,1146.72Z"/><path class="cls-8" d="M304.57,1146.11c8.33-4.33,16.65,6.58,18.48,23.84.17,1.58.32,3.2.46,4.87,4.21,52.36,8,141.42-3.71,235-6.22,11.94-23.93,15-40-1.79l-.36-.38c-27-28.38-40.39-70.42-39.77-125C240.66,1193.77,279.16,1159.31,304.57,1146.11Z"/><path class="cls-9" d="M305.67,1145.49c7.77-3.94,15.5,6.19,17.25,22.21.16,1.49.31,3,.43,4.6,3.82,49.14,7.16,132-3.44,219.49-5.64,14.89-23.05,20.12-38.54,3.66-.12-.12-.23-.25-.34-.37-25.76-27.46-38.45-67.8-37.72-119.89C244.5,1190.42,281.28,1157.89,305.67,1145.49Z"/><path class="cls-10" d="M306.77,1144.88c7.21-3.57,14.34,5.8,16,20.56.17,1.4.3,2.85.41,4.33,3.44,45.93,6.35,122.63-3.17,204-5.06,17.84-22.16,25.21-37.09,9.11l-.33-.36C258.08,1356,246.09,1317.35,247,1267.7,248.33,1187.08,283.4,1156.47,306.77,1144.88Z"/><path class="cls-11" d="M307.87,1144.27c6.64-3.2,13.19,5.4,14.78,18.92.16,1.31.29,2.67.39,4.06,3,42.71,5.54,113.23-2.91,188.5-4.47,20.79-21.28,30.31-35.64,14.56-.11-.12-.21-.24-.32-.35-23.27-25.62-34.57-62.54-33.58-109.75C252.16,1183.73,285.51,1155.05,307.87,1144.27Z"/><path class="cls-12" d="M309,1143.66c6.09-2.84,12,5,13.56,17.28q.23,1.83.36,3.78c2.66,39.49,4.73,103.84-2.65,173-3.88,23.73-20.39,35.4-34.18,20-.1-.12-.2-.23-.31-.34-22-24.7-32.62-59.92-31.52-104.68C256,1180.38,287.62,1153.61,309,1143.66Z"/><path class="cls-13" d="M310.06,1143.05c5.52-2.47,10.88,4.62,12.32,15.64.15,1.13.27,2.3.34,3.5,2.28,36.28,3.92,94.45-2.38,157.52-3.3,26.68-19.51,40.49-32.73,25.46l-.29-.33c-20.78-23.78-30.69-57.29-29.46-99.61C259.83,1177,289.73,1152.15,310.06,1143.05Z"/><path class="cls-2" d="M320.45,1301.69c-2.72,29.63-18.63,45.58-31.28,30.91l-.28-.33c-19.53-22.85-28.75-54.65-27.4-94.53,2.17-64,30.33-87.06,49.67-95.3,5.48-2.34,10.75,5.67,11.41,17.23C324.45,1192.73,325.68,1244.72,320.45,1301.69Z"/><path class="cls-14" d="M296,1540.14l.41-421.09a38.82,38.82,0,1,1,77.64.07l-.41,421.1a38.82,38.82,0,0,1-77.64-.08Z"/><path class="cls-15" d="M323.4,1100.07a22.38,22.38,0,0,1,34.2,19l-.41,421.09a22.39,22.39,0,1,1-44.77,0l.4-421.09A22.3,22.3,0,0,1,323.4,1100.07Z"/><path class="cls-16" d="M322.29,1112.3a20.71,20.71,0,0,1,31.65,17.62l-.53,397.89a20.73,20.73,0,1,1-41.45,0l.53-397.89A20.63,20.63,0,0,1,322.29,1112.3Z"/><path class="cls-17" d="M321.17,1124.53a19,19,0,0,1,29.12,16.2l-.65,374.69a19.07,19.07,0,1,1-38.13,0l.65-374.7A19,19,0,0,1,321.17,1124.53Z"/><path class="cls-18" d="M320.06,1136.76a17.38,17.38,0,0,1,26.57,14.77l-.77,351.5a17.4,17.4,0,1,1-34.8,0l.77-351.5A17.33,17.33,0,0,1,320.06,1136.76Z"/><path class="cls-19" d="M319,1149a15.71,15.71,0,0,1,24,13.35l-.9,328.3a15.74,15.74,0,1,1-31.47,0l.89-328.3A15.66,15.66,0,0,1,319,1149Z"/><path class="cls-20" d="M317.84,1161.22a14,14,0,0,1,21.48,11.93l-1,305.1a14.08,14.08,0,1,1-28.16,0l1-305.1A14,14,0,0,1,317.84,1161.22Z"/><path class="cls-21" d="M316.73,1173.45a12.44,12.44,0,0,1,15.33,1.75,12.23,12.23,0,0,1,3.61,8.76l-1.14,281.9a12.45,12.45,0,0,1-21.22,8.78,12.23,12.23,0,0,1-3.61-8.76l1.14-281.9A12.33,12.33,0,0,1,316.73,1173.45Z"/><path class="cls-22" d="M315.62,1185.68a10.7,10.7,0,0,1,16.39,9.09l-1.26,258.7A10.8,10.8,0,0,1,320,1464.21a10.67,10.67,0,0,1-10.72-10.71l1.26-258.7A10.69,10.69,0,0,1,315.62,1185.68Z"/><path class="cls-23" d="M314.51,1197.91a9.1,9.1,0,0,1,11.21,1.27,8.85,8.85,0,0,1,2.64,6.39L327,1441.08a9.14,9.14,0,0,1-9.13,9.08,9,9,0,0,1-9.05-9l1.38-235.51A9,9,0,0,1,314.51,1197.91Z"/><path class="cls-24" d="M313.39,1210.14a7.38,7.38,0,0,1,3.92-1.12,7.32,7.32,0,0,1,7.39,7.36l-1.5,212.31a7.49,7.49,0,0,1-7.46,7.42,7.27,7.27,0,0,1-5.25-2.15,7.18,7.18,0,0,1-2.14-5.21l1.49-212.31A7.41,7.41,0,0,1,313.39,1210.14Z"/><path class="cls-25" d="M312.28,1222.37a5.7,5.7,0,0,1,8.77,4.82l-1.63,189.11a5.74,5.74,0,0,1-2.76,4.89,5.9,5.9,0,0,1-3,.87,5.61,5.61,0,0,1-4.07-1.66,5.53,5.53,0,0,1-1.66-4l1.62-189.11A5.77,5.77,0,0,1,312.28,1222.37Z"/><path class="cls-26" d="M311.17,1234.6a4,4,0,0,1,2.15-.62,4,4,0,0,1,2.9,1.16,3.92,3.92,0,0,1,1.17,2.86l-1.74,165.91a4.18,4.18,0,0,1-4.14,4.1,4,4,0,0,1-2.9-1.17,3.88,3.88,0,0,1-1.17-2.85l1.74-165.91A4.09,4.09,0,0,1,311.17,1234.6Z"/><rect class="cls-2" x="358.22" y="489.65" width="1863.26" height="1596.18" rx="571.7"/><rect class="cls-26" x="387.66" y="525.41" width="1802.28" height="1526.78" rx="516.67"/><path class="cls-27" d="M2187.83,1514.14c0,285.35-232.13,517-517.48,517h-764c-285.34,0-518.73-231.67-518.73-517V1046.35c0-288.31,235.79-520.94,524.11-520.94H1665c288.32,0,522.86,232.63,522.86,520.94Z"/><path class="cls-28" d="M2183.63,1493.5c0,285.35-229.81,516.63-515.16,516.63H909.52c-285.35,0-517.66-231.28-517.66-516.63V1051.73c0-291.29,237.13-526.32,528.41-526.32h737.45c291.29,0,525.91,235,525.91,526.32Z"/><path class="cls-29" d="M2183.63,1472.86c0,285.35-231.69,518.34-517,518.34H912.65c-285.35,0-520.79-233-520.79-518.34V1057.1c0-294.25,242.66-531.69,536.91-531.69h721.7c294.25,0,533.16,237.44,533.16,531.69Z"/><path class="cls-30" d="M2183.63,1452.23c0,285.34-233.56,517.94-518.91,517.94H915.78c-285.35,0-515.5-232.6-515.5-517.94V1062.48c0-297.22,239.77-537.07,537-537.07h706c297.22,0,540.41,239.85,540.41,537.07Z"/><path class="cls-31" d="M2183.63,1431.59c0,285.35-235.44,517.55-520.79,517.55H918.9c-285.35,0-518.62-232.2-518.62-517.55V1067.85c0-300.19,245.31-542.44,545.5-542.44H1636c300.19,0,547.66,242.25,547.66,542.44Z"/><path class="cls-32" d="M2175.21,1411c0,285.35-228.9,517.16-514.24,517.16H922c-285.35,0-515.44-231.81-515.44-517.16V1073.23c0-303.16,244.53-547.82,547.69-547.82h674.44c303.16,0,546.49,244.66,546.49,547.82Z"/><path class="cls-33" d="M2175.21,1390.32c0,285.34-230.77,516.76-516.12,516.76H925.16c-285.35,0-518.57-231.42-518.57-516.76V1078.6c0-306.13,250.06-553.19,556.19-553.19h658.69c306.12,0,553.74,247.06,553.74,553.19Z"/><path class="cls-34" d="M2175.21,1369.68c0,285.35-232.65,516.37-518,516.37H928.28c-285.35,0-515.39-231-515.39-516.37V1084c0-309.1,249.29-558.57,558.39-558.57h642.94c309.09,0,561,249.47,561,558.57Z"/><path class="cls-35" d="M2175.21,1349c0,285.35-234.52,516-519.87,516H931.41c-285.35,0-518.52-230.63-518.52-516V1089.35c0-312.06,254.83-563.94,566.89-563.94H1607c312.07,0,568.25,251.88,568.25,563.94Z"/><path class="cls-36" d="M2168.9,1328.4c0,285.35-230.09,515.59-515.44,515.59H934.54c-285.35,0-513.23-230.24-513.23-515.59V1094.73c0-315,251.94-569.32,567-569.32h611.43c315,0,569.19,254.28,569.19,569.32Z"/><path class="cls-2" d="M1592.46,525.41H996.79c-318,0-575.48,256.69-575.48,574.69v207.67c0,285.35,231,517.29,516.35,517.29h713.93c285.34,0,517.31-231.94,517.31-517.29V1100.1C2168.9,782.1,1910.46,525.41,1592.46,525.41Z"/><path class="cls-14" d="M531.06,1274.68c-72.2,0-119.45,12.77-150.25,27-9.32,4.27-14.18,8.68-22.59,12.84v67.11a28,28,0,0,0,22-10.78h-.38c.52,0,8.53-9.55,31.39-18.88s60.56-18.76,119.94-18.77a29.24,29.24,0,1,0-.07-58.48Z"/><path class="cls-14" d="M2223.58,1308.87c-4.2-2.41-9.07-4.85-14.28-7.24-30.8-14.18-78.84-27-151-27a29.25,29.25,0,1,0-.06,58.5c59.37,0,97,9.46,119.88,18.75s31.41,18.88,31.41,18.88h.32c3.64,4.49,9.56,7.65,13.76,9.36Z"/><rect class="cls-14" x="530.66" y="758.84" width="1514.16" height="1129.31" rx="475.6"/><path class="cls-37" d="M1006.65,1831.37c-231.9,0-421.31-188.72-421.31-420.62v-177c0-231.9,189.41-420.27,421.31-420.27h562.19c231.9,0,421.31,188.37,421.31,420.27v177c0,231.9-189.41,420.62-421.31,420.62Z"/><g class="cls-38"><path class="cls-39" d="M1990.15,1240.43v-6.64c0-.32-.77.33-.77.33h-62.32v-75.71h55.22c-.42,0-.77-8.41-1.23-8.41h-54v-82h28.11c-1,0-2.07-6.31-3.11-6.31h-25v-47.26c-2.1-3.62-4.21-7.17-6.31-10.72v58H1824V986h83.79c-.53,0-1-1.84-1.55-2.55-.37-.5-.75-1.58-1.13-2.08a12.38,12.38,0,0,1-2.52-3.78H1824V904h3.64c-2.2,0-4.36-4.15-6.59-5.83-.47-.36-.81-1-1.29-1.39-.72-.54-2.07-1.36-2.07-1.9v.7h-90.43V844.6c0-.94-6.31-1.82-6.31-2.72v53.65h-90.42v-75.7h13.57c-3.32,0-6.61-1.12-9.95-1.65-.6-.09-1.19-.13-1.78-.22-6.44-1-12.94-1.77-19.47-2.45l-1.43-.15c-6.24-.63-12.52-1.07-18.83-1.43-1.52-.08-3.05,0-4.57-.08-6.38-.28-12.79-.33-19.24-.33H1006.65c-6.46,0-12.87.05-19.26.34-1.51.07-3,.07-4.54.15-6.31.36-12.61.77-18.84,1.4l-1.41.15c-6.54.68-13,1.49-19.49,2.48-.6.08-1.18.05-1.77.15-3.34.52-6.64,1.64-10,1.64H945v75.7H848.22V844.59c0,.51-2.87,1-4.1,1.48-.39.16-1.37.33-1.77.5-.66.28-2.55.6-2.55.88v48.08h-82v-.69c0,.53-1.35,1-2.08,1.57-.47.35-.87,1.35-1.34,1.7-2.24,1.69-4.33,5.84-6.53,5.84h3.64v73.6H672.89c-.85,2.1-1.75,2.56-2.59,3.68-.33.44-.67,1.46-1,1.91-.55.74-1.06,2.82-1.6,2.82h83.78v75.71H661.05V993.55c0,1.23-1.4,2.42-2.25,3.66-.7,1-1.3,2.07-2,3.11s0,2.26-2.06,3.38v58h-31.3c-1,0-2.12,6.31-3.12,6.31h34.42v82h-60.3c-.46,0-.8,8.41-1.23,8.41h61.53v75.71H586.12s-.78-.65-.78-.33v6.64h69.4v75.71h-69.4v6.3h69.4v82h-69.4v6.3a15.57,15.57,0,0,0,.78,2.11h68.62v75.71H593.21c.43,0,.77,6.31,1.24,6.31h60.29v75.71H617.46c.51,0,1,2.17,1.49,3.41.15.38.31.65.48,1,.28.67.6,1.87.89,1.87h34.42v63.94c2.1,1.11,1.49,2.26,2.24,3.37s1.08,2.08,1.79,3.11c.84,1.24,2.28,2.43,2.28,3.66v-74.08h90.43V1661H667.7c.53,0,1,.64,1.57,1.36.35.47.71,1.09,1.07,1.56.83,1.1,1.72,3.39,2.56,3.39h78.58v67.29H739.12s.06.25.09.28.22.84.32.92c2.72,2.25,5.54,5.11,8.32,7.22h3.63v1.46c0,.84,2,1.73,3.1,2.56.48.35.73.71,1.21,1.06.72.54,2,1,2,1.57v-6.65h82v54c0,.29,1.71.61,2.37.89.39.17,1.35.33,1.75.5,1.23.52,4.3,1,4.3,1.48v-56.9H945v82H931.38a38.23,38.23,0,0,1,6.14.79c2.72.45,5.44.75,8.19,1.15,4,.59,8.13,1,12.22,1.48,2.61.3,5.22.6,7.85.86,4.52.43,9.09.72,13.65,1,2.23.14,4.43.36,6.66.47,6.81.33,13.66.54,20.56.54h562.19c6.89,0,13.74-.22,20.56-.55,2.23-.11,4.43-.33,6.65-.47,4.57-.29,9.13-.61,13.66-1,2.63-.25,5.23-.59,7.85-.9,4.09-.47,8.17-1,12.22-1.55,2.74-.4,5.47-.55,8.2-1a37.82,37.82,0,0,1,6.13-.79h-13.57v-82H1721v59.61c0-.9,6.31-1.78,6.31-2.72v-56.89h90.43v6.66c0-.54,1.34-1,2.06-1.57.49-.36.75-.72,1.23-1.08,1.1-.83.92-1.71,3-2.55v-1.46h3.63c2.77-2.11,5.58-4.86,8.29-7.1.12-.09.24-.67.36-.76s0-.56.08-.56H1824v-67.29h78.59c.84,0,1.73-2.71,2.56-3.82.35-.47.71-.37,1.06-.84.54-.73,1-1.65,1.57-1.65H1824v-84.12h96.74v63.94c2.1-3.55,4.21-7.1,6.31-10.72v-53.22h28.11c.28,0,.6-1.33.87-2,.18-.43.36-.54.55-1,.51-1.21,1-3.36,1.45-3.36h-31v-75.71h54c.46,0,.81-6.31,1.23-6.31h-55.22v-75.71h62.32a15.69,15.69,0,0,0,.77-2.11v-6.3h-63.09v-82h63.09v-6.3h-63.09v-75.71ZM751.48,1570.6H661.05v-75.71h90.43Zm0-82H661.05v-75.71h90.43Zm0-84.12H661.05v-82h90.43Zm0-88.32H661.05v-75.71h90.43Zm0-82H661.05v-75.71h90.43Zm0-84.12H661.05v-82h90.43Zm88.32,584.63h-82v-67.29h82Zm0-73.6h-82v-84.12h82Zm0-90.43h-82v-75.71h82Zm0-82h-82v-75.71h82Zm0-84.12h-82v-82h82Zm0-88.32h-82v-75.71h82Zm0-82h-82v-75.71h82Zm0-84.12h-82v-82h82Zm0-88.33h-82V986h82Zm0-84.12h-82V904h82Zm689.79-157.72h94.64v75.7h-94.64Zm0,84.12h94.64v73.6h-94.64Zm0,82h94.64v75.71h-94.64Zm0,82h94.64v82h-94.64Zm0,90.43h94.64v75.71h-94.64Zm0,82h94.64v75.71h-94.64Zm0,82h94.64v82h-94.64Zm0,90.43h94.64v75.71h-94.64Zm0,82h94.64v75.71h-94.64Zm0,82h94.64V1661h-94.64Zm0,90.43h94.64v67.29h-94.64Zm-90.43-847.51h82v75.7h-82Zm0,84.12h82v73.6h-82Zm0,82h82v75.71h-82Zm0,82h82v82h-82Zm0,90.43h82v75.71h-82Zm0,82h82v75.71h-82Zm0,82h82v82h-82Zm0,90.43h82v75.71h-82Zm0,82h82v75.71h-82Zm0,82h82V1661h-82Zm0,90.43h82v67.29h-82Zm-96.74-847.51h90.43v75.7h-90.43Zm0,84.12h90.43v73.6h-90.43Zm0,82h90.43v75.71h-90.43Zm0,82h90.43v82h-90.43Zm0,90.43h90.43v75.71h-90.43Zm0,82h90.43v75.71h-90.43Zm0,82h90.43v82h-90.43Zm0,90.43h90.43v75.71h-90.43Zm0,82h90.43v75.71h-90.43Zm0,82h90.43V1661h-90.43Zm0,90.43h90.43v67.29h-90.43Zm-103-847.51h96.73v75.7h-96.73Zm0,84.12h96.73v73.6h-96.73Zm0,82h96.73v75.71h-96.73Zm0,82h96.73v82h-96.73Zm0,90.43h96.73v75.71h-96.73Zm0,82h96.73v75.71h-96.73Zm0,82h96.73v82h-96.73Zm0,90.43h96.73v75.71h-96.73Zm0,82h96.73v75.71h-96.73Zm0,82h96.73V1661h-96.73Zm0,90.43h96.73v67.29h-96.73Zm-96.74-847.51h90.43v75.7h-90.43Zm0,84.12h90.43v73.6h-90.43Zm0,82h90.43v75.71h-90.43Zm0,82h90.43v82h-90.43Zm0,90.43h90.43v75.71h-90.43Zm0,82h90.43v75.71h-90.43Zm0,82h90.43v82h-90.43Zm0,90.43h90.43v75.71h-90.43Zm0,82h90.43v75.71h-90.43Zm0,82h90.43V1661h-90.43Zm0,90.43h90.43v67.29h-90.43ZM1045.9,819.83h90.43v75.7H1045.9Zm0,84.12h90.43v73.6H1045.9Zm0,82h90.43v75.71H1045.9Zm0,82h90.43v82H1045.9Zm0,90.43h90.43v75.71H1045.9Zm0,82h90.43v75.71H1045.9Zm0,82h90.43v82H1045.9Zm0,90.43h90.43v75.71H1045.9Zm0,82h90.43v75.71H1045.9Zm0,82h90.43V1661H1045.9Zm0,90.43h90.43v67.29H1045.9ZM951.26,819.83h88.33v75.7H951.26Zm0,84.12h88.33v73.6H951.26Zm0,82h88.33v75.71H951.26Zm0,82h88.33v82H951.26Zm0,90.43h88.33v75.71H951.26Zm0,82h88.33v75.71H951.26Zm0,82h88.33v82H951.26Zm0,90.43h88.33v75.71H951.26Zm0,82h88.33v75.71H951.26Zm0,82h88.33V1661H951.26Zm0,90.43h88.33v67.29H951.26ZM848.22,904H945v73.6H848.22Zm0,82H945v75.71H848.22Zm0,82H945v82H848.22Zm0,90.43H945v75.71H848.22Zm0,82H945v75.71H848.22Zm0,82H945v82H848.22Zm0,90.43H945v75.71H848.22Zm0,82H945v75.71H848.22Zm0,82H945V1661H848.22Zm0,157.72v-67.29H945v67.29Zm103,90.43v-82h88.33v82Zm94.64,0v-82h90.43v82Zm96.74,0v-82h90.43v82Zm96.74,0v-82h96.73v82Zm103,0v-82h90.43v82Zm96.74,0v-82h82v82Zm90.43,0v-82h94.64v82ZM1721,1734.63h-90.42v-67.29H1721Zm0-73.6h-90.42v-84.12H1721Zm0-90.43h-90.42v-75.71H1721Zm0-82h-90.42v-75.71H1721Zm0-84.12h-90.42v-82H1721Zm0-88.32h-90.42v-75.71H1721Zm0-82h-90.42v-75.71H1721Zm0-84.12h-90.42v-82H1721Zm0-88.33h-90.42V986H1721Zm0-84.12h-90.42V904H1721Zm96.74,757.08h-90.43v-67.29h90.43Zm0-73.6h-90.43v-84.12h90.43Zm0-90.43h-90.43v-75.71h90.43Zm0-82h-90.43v-75.71h90.43Zm0-84.12h-90.43v-82h90.43Zm0-88.32h-90.43v-75.71h90.43Zm0-82h-90.43v-75.71h90.43Zm0-84.12h-90.43v-82h90.43Zm0-88.33h-90.43V986h90.43Zm0-84.12h-90.43V904h90.43Zm103,593.05H1824v-75.71h96.74Zm0-82H1824v-75.71h96.74Zm0-84.12H1824v-82h96.74Zm0-88.32H1824v-75.71h96.74Zm0-82H1824v-75.71h96.74Zm0-84.12H1824v-82h96.74Z"/></g><path class="cls-40" d="M982.83,1467.55c0,363.82,609.83,391.16,609.83,0Z"/><path class="cls-41" d="M981.39,1467.55c0,357.51,612.71,384.85,612.71,0Z"/><path class="cls-42" d="M980,1459.14c0,351.2,615.58,380.64,615.58,0Z"/><path class="cls-43" d="M978.52,1459.14c0,344.89,618.45,372.23,618.45,0Z"/><path class="cls-44" d="M977.08,1452.83c0,344.89,621.33,365.92,621.33,0Z"/><path class="cls-45" d="M975.64,1452.83c0,330.17,624.21,357.51,624.21,0Z"/><path class="cls-46" d="M974.2,1446.52c0,330.17,627.09,351.2,627.09,0Z"/><path class="cls-47" d="M972.77,1446.52c0,317.56,630,342.79,630,0Z"/><path class="cls-48" d="M971.33,1438.11c0,317.55,632.83,338.58,632.83,0Z"/><path class="cls-49" d="M969.89,1438.11c0,311.25,635.71,332.28,635.71,0Z"/><path class="cls-50" d="M968.45,1433.9c0,300.73,638.59,321.76,638.59,0Z"/><path class="cls-51" d="M967,1433.9c0,294.42,641.47,315.46,641.47,0Z"/><path class="cls-52" d="M964.43,1404.46c0,296.53,646.63,317.56,646.63,0Z"/><ellipse class="cls-53" cx="1693.61" cy="1203.9" rx="156.5" ry="175.13"/><ellipse class="cls-54" cx="1693.61" cy="1199.68" rx="156.5" ry="172.47"/><ellipse class="cls-55" cx="1693.61" cy="1195.46" rx="156.5" ry="169.8"/><ellipse class="cls-56" cx="1693.61" cy="1191.24" rx="156.5" ry="167.14"/><ellipse class="cls-57" cx="1693.61" cy="1187.03" rx="156.5" ry="164.48"/><ellipse class="cls-58" cx="1693.61" cy="1182.81" rx="156.5" ry="161.82"/><ellipse class="cls-59" cx="1693.61" cy="1178.59" rx="156.5" ry="159.16"/><circle class="cls-51" cx="1693.61" cy="1174.37" r="156.5"/><circle class="cls-52" cx="1693.61" cy="1146.86" r="154.78" transform="translate(-314.9 1533.47) rotate(-45)"/><circle class="cls-60" cx="1693.61" cy="1146.86" r="147.9"/><circle class="cls-61" cx="1693.61" cy="1149.81" r="144.95"/><circle class="cls-62" cx="1693.61" cy="1152.75" r="142" transform="translate(-319.07 1535.19) rotate(-45)"/><circle class="cls-63" cx="1693.61" cy="1155.7" r="139.05"/><circle class="cls-64" cx="1693.61" cy="1158.65" r="136.11"/><circle class="cls-65" cx="1693.61" cy="1161.6" r="133.16" transform="translate(-325.33 1537.78) rotate(-45)"/><circle class="cls-66" cx="1693.61" cy="1164.55" r="130.21"/><circle class="cls-52" cx="1693.61" cy="1167.49" r="127.26"/><ellipse class="cls-53" cx="895.64" cy="1203.9" rx="156.5" ry="175.13"/><ellipse class="cls-54" cx="895.64" cy="1199.68" rx="156.5" ry="172.47"/><ellipse class="cls-55" cx="895.64" cy="1195.46" rx="156.5" ry="169.8"/><ellipse class="cls-56" cx="895.64" cy="1191.24" rx="156.5" ry="167.14"/><ellipse class="cls-57" cx="895.64" cy="1187.03" rx="156.5" ry="164.48"/><ellipse class="cls-58" cx="895.64" cy="1182.81" rx="156.5" ry="161.82"/><ellipse class="cls-59" cx="895.64" cy="1178.59" rx="156.5" ry="159.16"/><circle class="cls-51" cx="895.64" cy="1174.37" r="156.5"/><circle class="cls-52" cx="895.64" cy="1146.86" r="154.78" transform="translate(-548.62 969.22) rotate(-45)"/><circle class="cls-60" cx="895.64" cy="1146.86" r="147.9"/><circle class="cls-61" cx="895.64" cy="1149.81" r="144.95"/><circle class="cls-62" cx="895.64" cy="1152.75" r="142" transform="translate(-552.79 970.95) rotate(-45)"/><circle class="cls-63" cx="895.64" cy="1155.7" r="139.05"/><circle class="cls-64" cx="895.64" cy="1158.65" r="136.11"/><circle class="cls-65" cx="895.64" cy="1161.6" r="133.16" transform="translate(-559.05 973.54) rotate(-45)"/><circle class="cls-66" cx="895.64" cy="1164.55" r="130.21"/><circle class="cls-52" cx="895.64" cy="1167.49" r="127.26"/><circle class="cls-14" cx="1287.75" cy="610.3" r="85.99"/><circle class="cls-67" cx="1287.75" cy="610.3" r="58.47"/><circle class="cls-68" cx="1287.75" cy="610.3" r="30.96"/><path class="cls-69" d="M1274.77,610.3a12.39,12.39,0,1,1,12.39,12.38A12.39,12.39,0,0,1,1274.77,610.3Z"/></g></g></svg>