<svg xmlns="http://www.w3.org/2000/svg" viewBox="0 0 264.52 167.45"><defs><style>.cls-1{fill:#fcffeb;}</style></defs><g id="Layer_2" data-name="Layer 2"><g id="Layer_1-2" data-name="Layer 1"><path class="cls-1" d="M45.57,21.45H56.9L47.29,54h-13l-5.8-20-5.6,20H10L.32,21.45H11.71l5.35,24,6.24-24H34l6.17,24Z" transform="translate(-0.32 -7.67)"/><path class="cls-1" d="M61.16,54V7.67H72v19.7a10.55,10.55,0,0,1,4-4.91,11,11,0,0,1,6-1.66,12.18,12.18,0,0,1,5.76,1.3,9.37,9.37,0,0,1,3.85,3.84A13.08,13.08,0,0,1,93,32.31V54H82.22V35.37q0-3.51-1.24-4.85a4.3,4.3,0,0,0-3.28-1.33,5.59,5.59,0,0,0-2.86.78,5.28,5.28,0,0,0-2.1,2.47A10.83,10.83,0,0,0,72,36.86V54Z" transform="translate(-0.32 -7.67)"/><path class="cls-1" d="M118.37,33.35a5.08,5.08,0,0,0-1.25-3.61,4.36,4.36,0,0,0-3.34-1.33,6,6,0,0,0-3.59,1.07,6,6,0,0,0-2.07,3.81L99,31.08a11.62,11.62,0,0,1,4.71-7.48q3.81-2.79,10.75-2.8a20.15,20.15,0,0,1,7.92,1.4,10.76,10.76,0,0,1,5,4.16,12.46,12.46,0,0,1,1.75,6.8V45.05c0,1.69.74,2.54,2.23,2.54a5.45,5.45,0,0,0,1.84-.26l-.63,6.31a10.89,10.89,0,0,1-4.65.91,11.16,11.16,0,0,1-4.39-.82,6.5,6.5,0,0,1-3-2.47,7.52,7.52,0,0,1-1.08-4.19v-.39l1.21-.46A6.91,6.91,0,0,1,119,50.91a9.71,9.71,0,0,1-4.2,2.79,15.9,15.9,0,0,1-5.37.91,14.34,14.34,0,0,1-5.67-1,8.18,8.18,0,0,1-3.72-3,8.74,8.74,0,0,1-1.3-4.91,8.44,8.44,0,0,1,2.06-5.82q2.07-2.31,6.53-3.22l12-2.53-.06,5.85-6.11,1.3a6.59,6.59,0,0,0-2.83,1.14,2.68,2.68,0,0,0-.92,2.24,2.43,2.43,0,0,0,1,2.14,4,4,0,0,0,2.41.72,6.5,6.5,0,0,0,2.07-.33,4.71,4.71,0,0,0,3-2.73,6.16,6.16,0,0,0,.45-2.47Z" transform="translate(-0.32 -7.67)"/><path class="cls-1" d="M159,21.45v7.87H133.19V21.45Zm-9.49-10.33V42.39a4.31,4.31,0,0,0,1.12,3.35,4.43,4.43,0,0,0,3.08,1,8.93,8.93,0,0,0,2.64-.35,6.2,6.2,0,0,0,2-1.08l1.14,6.83a11.84,11.84,0,0,1-4,1.82,19.26,19.26,0,0,1-5,.65,17.15,17.15,0,0,1-6.27-1,8.22,8.22,0,0,1-4.07-3.32,11.61,11.61,0,0,1-1.49-6v-30Z" transform="translate(-0.32 -7.67)"/><path class="cls-1" d="M23.15,79.21V82H1.71V79.21Zm-11.9-9v33a6.76,6.76,0,0,0,1.43,4.65,5.34,5.34,0,0,0,4.17,1.59,7.24,7.24,0,0,0,5.6-2.4l1.21,2.66a8.66,8.66,0,0,1-3.05,2,10.91,10.91,0,0,1-4.14.75,9.77,9.77,0,0,1-4.39-.94,6.66,6.66,0,0,1-3-2.89,10.36,10.36,0,0,1-1-4.94V71.08Z" transform="translate(-0.32 -7.67)"/><path class="cls-1" d="M30,111.71V64.25h3.18V85.84a11,11,0,0,1,4.52-5.37,13.53,13.53,0,0,1,7.19-1.91,14.17,14.17,0,0,1,6.3,1.33,9.89,9.89,0,0,1,4.3,4A13.13,13.13,0,0,1,57,90.58v21.13H53.82V91.62q0-5.27-2.57-7.77a9.28,9.28,0,0,0-6.72-2.5,11.26,11.26,0,0,0-9.77,5.53,12.29,12.29,0,0,0-1.62,6.5v18.33Z" transform="translate(-0.32 -7.67)"/><path class="cls-1" d="M81,112.36a15.21,15.21,0,0,1-7.83-2,13.92,13.92,0,0,1-5.38-5.82,19.8,19.8,0,0,1-1.94-9.07,19.8,19.8,0,0,1,1.94-9.07A14.1,14.1,0,0,1,73,80.57a14.3,14.3,0,0,1,7.57-2,13.46,13.46,0,0,1,7.39,2,12.83,12.83,0,0,1,4.7,5.42,18.41,18.41,0,0,1,1.66,8q0,.58,0,1.14c0,.37-.06.71-.1,1H67.82V93.18h25l-1.59.46q-.06-5.6-2.9-8.91a9.68,9.68,0,0,0-7.79-3.31,10.62,10.62,0,0,0-10.12,6.47A17.93,17.93,0,0,0,69,95.46,17.7,17.7,0,0,0,70.46,103a11,11,0,0,0,4.2,4.84,11.75,11.75,0,0,0,6.27,1.66,11.87,11.87,0,0,0,6.33-1.62,11.15,11.15,0,0,0,4.11-4.49l2.54,1.5a12.41,12.41,0,0,1-3,4,13.76,13.76,0,0,1-4.39,2.57A15.74,15.74,0,0,1,81,112.36Z" transform="translate(-0.32 -7.67)"/><path class="cls-1" d="M25.9,142v7.87H1V142Zm-7.19-14.69a17,17,0,0,1,4.58.55,9.16,9.16,0,0,1,2.93,1.27L25.14,136a6.33,6.33,0,0,0-1.6-.72,8.14,8.14,0,0,0-2.22-.26,6.08,6.08,0,0,0-3.66,1,4.2,4.2,0,0,0-1.43,3.64v4.23l.63,1.82v28.74H6.05V139a13,13,0,0,1,1-5.33A9.53,9.53,0,0,1,9.8,130a11.31,11.31,0,0,1,4.07-2.08A17.41,17.41,0,0,1,18.71,127.28Zm17,10.92q-3.31,0-4.81-1.27a5,5,0,0,1-1.49-4,5.06,5.06,0,0,1,1.49-4.06q1.5-1.27,4.81-1.27a7.37,7.37,0,0,1,4.77,1.27A5,5,0,0,1,42,132.93a4.9,4.9,0,0,1-1.53,4A7.37,7.37,0,0,1,35.7,138.2ZM41.11,142v32.51H30.29V142Z" transform="translate(-0.32 -7.67)"/><path class="cls-1" d="M48.81,174.48V142h9.67l.57,11.18-1.21-1.23a14.89,14.89,0,0,1,2.26-5.85,10.54,10.54,0,0,1,4.08-3.55,12.31,12.31,0,0,1,5.5-1.2,12.06,12.06,0,0,1,5.76,1.3,9.37,9.37,0,0,1,3.85,3.84,13.08,13.08,0,0,1,1.4,6.37v21.65H69.87V155.75c0-2.25-.42-3.81-1.27-4.68a4.34,4.34,0,0,0-3.25-1.3,5.74,5.74,0,0,0-2.86.75,5.11,5.11,0,0,0-2.1,2.37,10.4,10.4,0,0,0-.76,4.36v17.23Z" transform="translate(-0.32 -7.67)"/><path class="cls-1" d="M106,153.87a5.07,5.07,0,0,0-1.24-3.61,4.32,4.32,0,0,0-3.34-1.33,5.3,5.3,0,0,0-5.66,4.87l-9.16-2.21a11.67,11.67,0,0,1,4.7-7.48q3.82-2.79,10.76-2.79a20.15,20.15,0,0,1,7.92,1.4,10.76,10.76,0,0,1,5,4.16,12.42,12.42,0,0,1,1.75,6.79v11.9c0,1.69.74,2.53,2.23,2.53a5.24,5.24,0,0,0,1.84-.26l-.63,6.31a10.74,10.74,0,0,1-4.65.91,11.16,11.16,0,0,1-4.39-.81,6.56,6.56,0,0,1-3-2.47,7.57,7.57,0,0,1-1.08-4.2v-.39l1.21-.45a7,7,0,0,1-1.63,4.68,9.64,9.64,0,0,1-4.2,2.8,16.19,16.19,0,0,1-5.37.91,14.31,14.31,0,0,1-5.67-1,8.27,8.27,0,0,1-3.72-3,8.74,8.74,0,0,1-1.3-4.91,8.39,8.39,0,0,1,2.06-5.82A11.66,11.66,0,0,1,95,157.12l12-2.54-.06,5.85-6.11,1.3A6.59,6.59,0,0,0,98,162.87a2.71,2.71,0,0,0-.92,2.24,2.44,2.44,0,0,0,1,2.15,4.09,4.09,0,0,0,2.42.71,6.5,6.5,0,0,0,2.07-.32,4.86,4.86,0,0,0,1.75-1,4.81,4.81,0,0,0,1.21-1.72,6.2,6.2,0,0,0,.44-2.47Z" transform="translate(-0.32 -7.67)"/><path class="cls-1" d="M125.1,174.48V142h9.68l.57,11.18-1.21-1.23a14.74,14.74,0,0,1,2.26-5.85,10.58,10.58,0,0,1,4.07-3.55,12.38,12.38,0,0,1,5.51-1.2,12.12,12.12,0,0,1,5.76,1.3,9.37,9.37,0,0,1,3.85,3.84,13.08,13.08,0,0,1,1.4,6.37v21.65H146.17V155.75c0-2.25-.43-3.81-1.27-4.68a4.36,4.36,0,0,0-3.25-1.3,5.74,5.74,0,0,0-2.86.75,5.11,5.11,0,0,0-2.1,2.37,10.39,10.39,0,0,0-.77,4.36v17.23Z" transform="translate(-0.32 -7.67)"/><path class="cls-1" d="M179.64,141.32a20.28,20.28,0,0,1,8.05,1.4,12.64,12.64,0,0,1,5,3.7,10.91,10.91,0,0,1,2.26,5l-10,3.38a8.47,8.47,0,0,0-1.62-4.2,4.19,4.19,0,0,0-3.4-1.39,5.86,5.86,0,0,0-3.41.94,5.75,5.75,0,0,0-2.07,3,16.64,16.64,0,0,0-.69,5.23,14.58,14.58,0,0,0,.76,5.17,5.6,5.6,0,0,0,2.16,2.86,6.09,6.09,0,0,0,3.31.88,5.16,5.16,0,0,0,2.64-.62,5,5,0,0,0,1.75-1.79,6.88,6.88,0,0,0,.89-2.86l9.74,3.19a10,10,0,0,1-2.39,5.1,13.23,13.23,0,0,1-5.12,3.55,21.89,21.89,0,0,1-16.55-.69,14,14,0,0,1-6-5.78,20.92,20.92,0,0,1,0-18.27,14,14,0,0,1,5.89-5.79A18.6,18.6,0,0,1,179.64,141.32Z" transform="translate(-0.32 -7.67)"/><path class="cls-1" d="M216.1,175.13a19.35,19.35,0,0,1-9.07-2,14,14,0,0,1-5.91-5.75,21.19,21.19,0,0,1,0-18.27,14.18,14.18,0,0,1,5.85-5.76,18.24,18.24,0,0,1,8.69-2,17,17,0,0,1,8.52,2,13.59,13.59,0,0,1,5.38,5.46,16.55,16.55,0,0,1,1.88,8c0,.82,0,1.61-.07,2.37a16.78,16.78,0,0,1-.19,1.92H206v-6h20.49l-5.21,2.08a10.89,10.89,0,0,0-1.37-6,4.69,4.69,0,0,0-4.23-2.08,6,6,0,0,0-3.47,1,5.92,5.92,0,0,0-2.17,3,16.3,16.3,0,0,0-.73,5.3,13.55,13.55,0,0,0,.83,5.2,5.85,5.85,0,0,0,2.35,2.86,7.07,7.07,0,0,0,3.7.91,6.76,6.76,0,0,0,3.85-1,5.85,5.85,0,0,0,2.13-2.73l8.65,3a10.26,10.26,0,0,1-3.09,4.65,14.65,14.65,0,0,1-5.18,2.89A20.67,20.67,0,0,1,216.1,175.13Z" transform="translate(-0.32 -7.67)"/><path class="cls-1" d="M248.49,130.92a24.6,24.6,0,0,1,8.4,1.33,12.7,12.7,0,0,1,5.82,4,10.47,10.47,0,0,1,2.14,6.73,11.72,11.72,0,0,1-1.63,6.53,10.08,10.08,0,0,1-4.39,3.77,20,20,0,0,1-6.07,1.66l-.64,5.59h-9.55l.07-9.88a28.27,28.27,0,0,0,6.33-1.2,7,7,0,0,0,3.28-2,4.68,4.68,0,0,0,.95-2.93,5,5,0,0,0-.6-2.53,3.81,3.81,0,0,0-1.79-1.56,7.62,7.62,0,0,0-3.08-.52,5.7,5.7,0,0,0-4.33,1.66,8.6,8.6,0,0,0-2,4.91l-10.43-3.71a16.2,16.2,0,0,1,2.89-6.08,13.62,13.62,0,0,1,5.67-4.22A23.06,23.06,0,0,1,248.49,130.92Zm-1,33.22a6.58,6.58,0,0,1,4.49,1.43,5.09,5.09,0,0,1,1.62,4,5,5,0,0,1-1.62,4,6.58,6.58,0,0,1-4.49,1.43,6.47,6.47,0,0,1-4.42-1.43,5,5,0,0,1-1.62-4,5.09,5.09,0,0,1,1.62-4A6.47,6.47,0,0,1,247.47,164.14Z" transform="translate(-0.32 -7.67)"/></g></g></svg>